# xmcd
#
# Track frame offsets:
# 150
# 17175
# 35403
# 59438
# 80172
# 100238
# 114019
# 133138
# 150220
# 167282
# 184524
# 205479
# 223431
# 241608
# 258794
# 275509
# 294903
# 310122
#
# Disc length: 4327 seconds
#
# Revision: 0
# Processed by: cddbd v1.4b42PL1 Copyright (c) Steve Scherf et al.
# Submitted via: Audion 2.5.0 (http://www.panic.com/audion/)
#
DISCID=f110e512
DTITLE=Ect - CD#10-Great Hits 90's Vol 1
DYEAR=1900
DGENRE=
TTITLE0=Bon jovi-Its my Life
TTITLE1=Collieo-Gangster Paradise
TTITLE2=Creed-Take me Higher
TTITLE3=Creed-Arm Wide Open
TTITLE4=David Gray-Babylon
TTITLE5=Dawsons Creek-Kiss Me
TTITLE6=Destinies Child-Survivor
TTITLE7=Dido-Thank You
TTITLE8=Dream-Loves you not
TTITLE9=Everclear-AM Radio
TTITLE10=Everclear-Wonderful
TTITLE11=Foo Fighter-Learn to Fly
TTITLE12=Fuel-In my Hands
TTITLE13=Lean Ryhems-I need you
TTITLE14=I want to fly away
TTITLE15=Matchebox 20-Bent
TTITLE16=Nsync-Bye bye bye
TTITLE17=Nsync-Its Gonna be me
EXTD=
EXTT0=
EXTT1=
EXTT2=
EXTT3=
EXTT4=
EXTT5=
EXTT6=
EXTT7=
EXTT8=
EXTT9=
EXTT10=
EXTT11=
EXTT12=
EXTT13=
EXTT14=
EXTT15=
EXTT16=
EXTT17=
PLAYORDER=
